<?xml version="1.0" encoding="UTF-8"?>
<svg version="1.1" xmlns="http://www.w3.org/2000/svg" width="2000" height="342">
<path d="M0 0 C3.75214252 1.29285567 7.53968987 2.34848247 11.37005615 3.3815918 C12.1213873 3.58459617 12.87271845 3.78760054 13.64681721 3.99675655 C15.2304405 4.42432022 16.81413854 4.85160709 18.39790535 5.27863884 C22.61064117 6.42386723 26.81220511 7.6085758 31.01434326 8.79199219 C32.79498651 9.29275816 34.57563643 9.79350041 36.35629272 10.29421997 C37.25604954 10.54734577 38.15580635 10.80047157 39.08282852 11.06126785 C43.7698856 12.3788174 48.45828517 13.6915699 53.14666748 15.00439453 C54.10184297 15.27187343 55.05701845 15.53935232 56.04113865 15.81493664 C57.99468088 16.36198575 59.94822711 16.90902054 61.90177727 17.45604134 C64.88403333 18.29130771 67.86614175 19.12709944 70.84822083 19.96299744 C92.23755593 25.95734415 113.64128224 31.89972061 135.0459938 37.83888245 C138.87420113 38.90110125 142.70237239 39.96344989 146.53050709 41.0259304 C148.37362807 41.5374347 150.21678188 42.04882073 152.0599699 42.56008339 C156.42616202 43.77141588 160.79172464 44.98491544 165.1558075 46.2038269 C172.45542656 48.24095668 179.75686622 50.2580308 187.08880615 52.17602539 C188.26069992 52.48773178 189.43259369 52.79943817 190.63999939 53.12059021 C192.73126587 53.675047 194.8260139 54.21664018 196.92494202 54.74134827 C202.24535948 56.1652464 205.7276911 57.48890304 209.15374756 62.08666992 C209.6897831 66.52810726 209.6540641 68.33619511 207.15374756 72.08666992 C206.86567042 74.08427081 206.86567042 74.08427081 206.92669678 76.28271484 C206.92684784 77.12335983 206.9269989 77.96400482 206.92715454 78.8301239 C206.93747711 79.73333878 206.94779968 80.63655365 206.95843506 81.56713867 C206.96126495 82.49512772 206.96409485 83.42311676 206.9670105 84.37922668 C206.97820919 87.34433871 207.00331321 90.30914913 207.02874756 93.27416992 C207.03877776 95.28393119 207.04790354 97.29369718 207.05609131 99.3034668 C207.07814752 104.23131745 207.11267527 109.15894254 207.15374756 114.08666992 C208.8266687 115.01805786 208.8266687 115.01805786 210.53338623 115.96826172 C213.4741842 117.60553182 215.46820538 119.1356806 217.46624756 121.89916992 C218.17200928 122.83696289 218.17200928 122.83696289 218.89202881 123.79370117 C222.38266674 130.13736824 222.42814559 136.32894047 222.34906006 143.39526367 C222.3470459 144.25317505 222.34503174 145.11108643 222.34295654 145.99499512 C222.33256544 149.17144183 222.30464334 152.34781177 222.27874756 155.52416992 C222.23749756 162.63979492 222.19624756 169.75541992 222.15374756 177.08666992 C205.98374756 177.08666992 189.81374756 177.08666992 173.15374756 177.08666992 C173.06093506 165.94916992 173.06093506 165.94916992 172.96624756 154.58666992 C172.93893555 152.25797852 172.91162354 149.92928711 172.88348389 147.5300293 C172.87471378 145.6634981 172.86707109 143.79696112 172.86077881 141.93041992 C172.83775696 140.50197754 172.83775696 140.50197754 172.81427002 139.04467773 C172.81160827 132.19511126 173.6572706 126.55634977 177.76702881 120.84448242 C178.327771 120.3056543 178.88851318 119.76682617 179.46624756 119.21166992 C180.01925537 118.65737305 180.57226318 118.10307617 181.14202881 117.53198242 C183.15374756 116.08666992 183.15374756 116.08666992 189.15374756 114.08666992 C189.15374756 102.20666992 189.15374756 90.32666992 189.15374756 78.08666992 C181.84282959 80.14401367 181.84282959 80.14401367 174.38421631 82.24291992 C171.2990488 83.10923416 168.21382044 83.97531845 165.12835693 84.84057617 C160.2292038 86.21447119 155.33030105 87.58921878 150.43280029 88.96899414 C146.48506753 90.08113374 142.53629061 91.18948969 138.58675575 92.29521179 C137.07887139 92.7180832 135.57137061 93.14232484 134.06426048 93.56794739 C131.95600474 94.16308869 129.84644728 94.75337748 127.73651123 95.3425293 C126.53516037 95.68006226 125.33380951 96.01759521 124.09605408 96.36535645 C121.15374756 97.08666992 121.15374756 97.08666992 118.15374756 97.08666992 C118.16374031 98.98681099 118.16374031 98.98681099 118.17393494 100.92533875 C118.23472824 112.85854798 118.27971172 124.79172583 118.30918407 136.72505474 C118.32484542 142.8602258 118.34609256 148.99527193 118.38006592 155.13037109 C118.41264218 161.05016624 118.43059704 166.96984115 118.43837929 172.88971901 C118.44392587 175.1491771 118.45475687 177.40862855 118.47093773 179.66803551 C118.49268859 182.83075602 118.49571541 185.99297855 118.49432373 189.15576172 C118.51050247 190.55946014 118.51050247 190.55946014 118.52700806 191.99151611 C118.50395949 196.8265651 118.36939702 200.19307866 115.15374756 204.08666992 C112.62207991 205.35250375 110.5377361 205.41526186 107.71234131 205.66479492 C67.95976353 209.40224102 25.06904566 218.27296534 -7.34625244 243.21166992 C-11.24383093 245.97107609 -14.21964865 247.32524304 -19.04937744 246.95776367 C-24.18810612 245.35729371 -28.33587694 242.03139693 -32.67828369 238.94604492 C-63.08520266 217.58802798 -103.64931656 207.90146287 -140.24957275 205.94482422 C-146.23213867 205.52913698 -146.23213867 205.52913698 -149.36187744 203.27416992 C-151.65381958 199.89657099 -151.97155777 196.82971107 -151.96650696 192.80926514 C-151.96856895 191.53889404 -151.96856895 191.53889404 -151.97067261 190.24285889 C-151.96527969 188.86181976 -151.96527969 188.86181976 -151.95977783 187.45288086 C-151.95992386 186.4769397 -151.96006989 185.50099854 -151.96022034 184.4954834 C-151.95952384 181.27064794 -151.9517437 178.04587029 -151.94390869 174.82104492 C-151.94204358 172.58473746 -151.94062012 170.3484296 -151.93962097 168.11212158 C-151.93580315 162.22667309 -151.9259791 156.34124929 -151.91491699 150.45581055 C-151.9046871 144.44995457 -151.90011997 138.4440946 -151.89508057 132.43823242 C-151.8843562 120.65436741 -151.86728856 108.87052072 -151.84625244 97.08666992 C-152.78928113 96.90650109 -152.78928113 96.90650109 -153.75136089 96.72269249 C-159.18762474 95.66323396 -164.53836746 94.46001533 -169.87872314 92.99536133 C-170.61342331 92.79666946 -171.34812347 92.5979776 -172.10508728 92.39326477 C-174.49515531 91.74550466 -176.88372294 91.09244002 -179.27203369 90.43823242 C-180.09509695 90.21337536 -180.91816021 89.9885183 -181.76616478 89.75684738 C-186.11077056 88.56964909 -190.4541992 87.37825291 -194.79669189 86.18334961 C-199.27028388 84.95327765 -203.74773466 83.73790762 -208.22620869 82.52575111 C-211.684886 81.58675325 -215.14052005 80.63692016 -218.59541893 79.68412399 C-220.24527484 79.23115266 -221.89625411 78.78225184 -223.54836464 78.33757401 C-225.85582229 77.71542554 -228.15854024 77.07800593 -230.46075439 76.43676758 C-231.13772369 76.25792526 -231.81469299 76.07908295 -232.51217651 75.89482117 C-236.7337154 74.69692826 -239.67324176 73.12524974 -242.84625244 70.08666992 C-243.51031494 67.86791992 -243.51031494 67.86791992 -243.47125244 65.58666992 C-243.48414307 64.83385742 -243.49703369 64.08104492 -243.51031494 63.30541992 C-242.51488745 59.97952101 -240.69440586 59.02936454 -237.84625244 57.08666992 C-235.14595604 56.1045189 -232.56687145 55.28586809 -229.80255127 54.55078125 C-228.99843307 54.32649256 -228.19431488 54.10220387 -227.36582947 53.87111855 C-224.68135234 53.12545761 -221.99247043 52.39717759 -219.30328369 51.66870117 C-217.3810045 51.13837023 -215.45902946 50.60693577 -213.53733826 50.07447815 C-208.33311315 48.63562853 -203.12495832 47.21150906 -197.91601562 45.78984833 C-192.45867252 44.29757172 -187.00513635 42.79151996 -181.55133057 41.28637695 C-173.64682962 39.10605604 -165.74122843 36.92981066 -157.83418083 34.75874329 C-143.73041295 30.88586771 -129.63551177 26.98182713 -115.54547119 23.05932617 C-114.53632975 22.7784572 -113.5271883 22.49758823 -112.48746681 22.20820808 C-107.51992799 20.82559294 -102.55249026 19.44261507 -97.58511353 18.05941772 C-92.90193349 16.75545893 -88.2186213 15.45197711 -83.53499317 14.14962864 C-81.74449256 13.65169727 -79.95408047 13.15344747 -78.16376019 12.65486813 C-73.87633168 11.46179962 -69.58718535 10.27589163 -65.2933197 9.10618591 C-57.38053446 6.94487621 -49.52081868 4.69763387 -41.70562744 2.20483398 C-26.81739864 -2.48128001 -15.1275985 -5.53689001 0 0 Z M-26.99371338 15.89306641 C-27.69064584 16.08749895 -28.3875783 16.2819315 -29.10562992 16.48225594 C-31.43275179 17.13344553 -33.75659316 17.79564679 -36.08062744 18.45776367 C-37.75504408 18.92852212 -39.42966619 19.39855025 -41.10447693 19.86790466 C-44.71163145 20.88030961 -48.31739612 21.89747538 -51.92214966 22.918396 C-57.6350404 24.53627603 -63.35080117 26.14383167 -69.06719971 27.74926758 C-75.06929561 29.435292 -81.07127763 31.12170814 -87.07234192 32.81140137 C-108.96425736 38.97403692 -130.87875185 45.0549246 -152.79438782 51.13255692 C-160.48742619 53.26625386 -168.17996526 55.40175006 -175.87246132 57.5374012 C-178.4242094 58.24570931 -180.97606484 58.95362946 -183.52793884 59.66148376 C-185.07016283 60.08949753 -186.61238407 60.51752123 -188.15460205 60.94555664 C-188.83608181 61.13448203 -189.51756157 61.32340742 -190.21969223 61.51805782 C-194.43426525 62.68822175 -198.64188334 63.88050421 -202.84625244 65.08666992 C-199.0608072 67.24483853 -194.97626679 68.28273002 -190.80499268 69.42724609 C-189.58251249 69.76794947 -189.58251249 69.76794947 -188.33533573 70.11553574 C-185.60957193 70.87413265 -182.882218 71.62684535 -180.15484619 72.37963867 C-178.21085667 72.9195221 -176.26697061 73.45977819 -174.32318115 74.00038147 C-169.06997009 75.46019783 -163.81534324 76.91484986 -158.56028366 78.36799622 C-151.98654978 80.18606062 -145.41373036 82.00742873 -138.84075832 83.82824516 C-137.18826879 84.28600932 -137.18826879 84.28600932 -135.50239563 84.75302124 C-134.39658709 85.05935863 -133.29077854 85.36569603 -132.15146065 85.68131638 C-128.76412471 86.61944963 -125.37659387 87.55687695 -121.98905945 88.49429321 C-108.04089789 92.35624237 -94.10467015 96.25849058 -80.17703056 100.19376564 C-74.43897015 101.81341503 -68.69866657 103.42509634 -62.95826817 105.03643703 C-58.43373338 106.30725387 -53.9108866 107.58353952 -49.39138794 108.87216187 C-45.1695892 110.07583456 -40.94412762 111.26563548 -36.71546936 112.4449749 C-35.17896604 112.87624266 -33.64390364 113.31268452 -32.11048889 113.75480843 C-30.02205457 114.35627872 -27.92920563 114.93891363 -25.83428955 115.51733398 C-24.67014023 115.84670959 -23.50599091 116.17608521 -22.30656433 116.51544189 C-15.22796482 117.68397657 -8.66203315 115.65552537 -1.89068604 113.73266602 C-1.02921243 113.49300456 -0.16773882 113.25334311 0.71984005 113.00641918 C3.56653165 112.2130327 6.41088825 111.41158977 9.25531006 110.61010742 C11.27379899 110.04587322 13.2924331 109.48215816 15.311203 108.91893005 C20.6932916 107.41591134 26.07344684 105.90608024 31.45326614 104.39496231 C36.98564249 102.84230749 42.51981655 101.29609009 48.05389404 99.74951172 C55.71311123 97.60851717 63.37184002 95.46579467 71.02982998 93.32041454 C85.9498778 89.14066807 100.87655649 84.98519875 115.80749512 80.84454346 C120.1774929 79.63258092 124.54709816 78.41920677 128.91670227 77.20582581 C132.66229076 76.165771 136.40800964 75.12618644 140.15374756 74.08666992 C140.15374756 73.75666992 140.15374756 73.42666992 140.15374756 73.08666992 C139.35768443 73.08243798 138.5616213 73.07820604 137.74143505 73.07384586 C118.38782707 72.97062353 99.03425635 72.86199845 79.6807127 72.74733067 C70.32155805 72.69200945 60.96239959 72.63852925 51.60321045 72.58935547 C43.44749029 72.54650015 35.29179808 72.50021873 27.13612109 72.44979137 C22.81619159 72.42320131 18.49626759 72.39834848 14.17630577 72.3775959 C10.11260176 72.35802029 6.04895088 72.33387369 1.98529434 72.30617905 C0.49172365 72.29681352 -1.0018587 72.28913644 -2.49544716 72.28325081 C-4.53068464 72.2749813 -6.56589216 72.26011563 -8.60108948 72.24488831 C-10.31147636 72.23520948 -10.31147636 72.23520948 -12.05641651 72.22533512 C-14.84625244 72.08666992 -14.84625244 72.08666992 -17.84625244 71.08666992 C-19.19306338 63.86286582 -19.19306338 63.86286582 -17.53375244 60.14916992 C-15.84625244 58.08666992 -15.84625244 58.08666992 -13.84625244 57.08666992 C-11.90801865 56.98093368 -9.96613619 56.94002528 -8.02505493 56.92845154 C-6.78542496 56.91866272 -5.54579498 56.9088739 -4.26860046 56.89878845 C-2.88742104 56.89288389 -1.50624121 56.88707347 -0.12506104 56.88134766 C1.32349428 56.87177165 2.77204678 56.86176174 4.22059631 56.85134888 C8.16041693 56.82426362 12.10024957 56.8032737 16.04011202 56.78334689 C20.15478499 56.76150963 24.26942075 56.73410991 28.38406372 56.70729065 C36.17903118 56.65733314 43.97401926 56.61240568 51.76902711 56.56926829 C60.64196427 56.51992201 69.5148641 56.46499422 78.38776517 56.40958869 C96.64305799 56.29572171 114.89838601 56.18889296 133.15374756 56.08666992 C129.79646207 53.84847959 126.5711984 52.9446364 122.73138428 51.91040039 C121.593631 51.59694294 121.593631 51.59694294 120.4328928 51.27715302 C117.90110761 50.58096051 115.36728616 49.89248937 112.83343506 49.20385742 C111.04073559 48.71224089 109.24818162 48.22009349 107.45576477 47.72744751 C102.6438084 46.40617444 97.83014794 45.09121591 93.01612473 43.77749634 C85.06370522 41.60576055 77.1143168 39.42293242 69.16461754 37.24126434 C67.17174025 36.69443396 65.178801 36.1478294 63.18580055 35.60144806 C50.41145448 32.09895079 37.64962743 28.55674397 24.90765381 24.93823242 C23.55451302 24.55456551 22.20136378 24.17092843 20.84820557 23.787323 C14.74176369 22.05500447 8.63830225 20.31274685 2.5380249 18.55883789 C0.40870979 17.95325259 -1.72067967 17.34792862 -3.85015869 16.74291992 C-4.78983994 16.46912506 -5.72952118 16.1953302 -6.69767761 15.91323853 C-7.56083084 15.66947479 -8.42398407 15.42571106 -9.31329346 15.17456055 C-10.05015884 14.96271118 -10.78702423 14.75086182 -11.54621887 14.53259277 C-17.06784136 13.46207899 -21.63666911 14.38054103 -26.99371338 15.89306641 Z M-134.84625244 102.08666992 C-134.84625244 130.79666992 -134.84625244 159.50666992 -134.84625244 189.08666992 C-125.27625244 190.40666992 -115.70625244 191.72666992 -105.84625244 193.08666992 C-77.18827714 198.97896391 -49.2392406 207.49303755 -24.57940674 223.6328125 C-23.88371582 224.08293701 -23.1880249 224.53306152 -22.47125244 224.99682617 C-21.86539307 225.4003833 -21.25953369 225.80394043 -20.63531494 226.21972656 C-18.57765444 227.37738835 -18.57765444 227.37738835 -14.84625244 227.08666992 C-12.66386516 225.88084884 -10.6179579 224.63122177 -8.53375244 223.27416992 C13.80728611 209.42651075 38.28708355 200.55341877 63.84124756 194.71166992 C64.82319092 194.48503662 65.80513428 194.25840332 66.8168335 194.02490234 C78.21099882 191.58866194 89.48966778 190.54467989 101.15374756 189.08666992 C101.15374756 160.37666992 101.15374756 131.66666992 101.15374756 102.08666992 C87.92117148 105.38426787 87.92117148 105.38426787 74.75604248 108.91162109 C73.8416893 109.16419174 72.92733612 109.41676239 71.98527527 109.67698669 C69.03439025 110.49262848 66.08428811 111.31106097 63.13421631 112.12963867 C61.05680947 112.70460315 58.97936015 113.27941419 56.90187073 113.8540802 C52.58436908 115.04880342 48.26722868 116.24481985 43.95037842 117.44189453 C38.41391203 118.97714131 32.8767659 120.50991913 27.33938122 122.04185009 C23.06622431 123.22416323 18.79330555 124.40733496 14.52047157 125.59081459 C12.47713169 126.15674919 10.43374485 126.72251428 8.39031029 127.28810692 C5.54975548 128.07455958 2.70949515 128.8620664 -0.13067627 129.64990234 C-0.97372314 129.88314209 -1.81677002 130.11638184 -2.68536377 130.35668945 C-5.76170932 131.21097681 -8.81676176 132.0768397 -11.84625244 133.08666992 C-18.82353839 133.68288221 -24.96064342 132.61311944 -31.63189697 130.67163086 C-32.5537529 130.41470963 -33.47560883 130.15778839 -34.42539978 129.89308167 C-37.44684036 129.04784046 -40.46278862 128.18451553 -43.47906494 127.32104492 C-45.60086973 126.72408262 -47.72301781 126.12833926 -49.8454895 125.53375244 C-55.42215559 123.96832826 -60.99443216 122.38782682 -66.5657959 120.8036499 C-73.29428153 118.89309523 -80.02731113 116.99863518 -86.7601757 115.10358047 C-92.00852391 113.62630191 -97.25600679 112.1462044 -102.50082397 110.65643311 C-104.42862907 110.11071606 -106.35643463 109.56500065 -108.28424072 109.01928711 C-109.1180275 108.78119827 -109.95181427 108.54310944 -110.81086731 108.29780579 C-118.78756482 106.04457221 -126.79042792 104.10062605 -134.84625244 102.08666992 Z M192.15374756 131.08666992 C189.82483544 134.5800381 189.91823613 135.94674857 189.95843506 140.06713867 C189.96488037 141.23051758 189.97132568 142.39389648 189.97796631 143.5925293 C189.99472412 144.8074707 190.01148193 146.02241211 190.02874756 147.27416992 C190.037771 148.50071289 190.04679443 149.72725586 190.05609131 150.9909668 C190.07968651 154.02295077 190.11555789 157.05483465 190.15374756 160.08666992 C195.10374756 160.08666992 200.05374756 160.08666992 205.15374756 160.08666992 C205.20763551 156.00316073 205.24736903 151.92036093 205.27874756 147.83666992 C205.29550537 146.67780273 205.31226318 145.51893555 205.32952881 144.32495117 C205.33597412 143.20991211 205.34241943 142.09487305 205.34906006 140.94604492 C205.35953369 139.91962891 205.37000732 138.89321289 205.38079834 137.83569336 C205.147935 135.01629421 204.73134352 133.41830776 203.15374756 131.08666992 C198.84683536 128.9810684 196.33837806 128.64563546 192.15374756 131.08666992 Z " fill="#393939" transform="translate(262.84625244140625,48.913330078125)"/>
<path d="M0 0 C10.23 0 20.46 0 31 0 C35.13161719 8.1894555 39.22540393 16.3849813 43.125 24.6875 C43.45516113 25.3899585 43.78532227 26.09241699 44.12548828 26.81616211 C45.69777215 30.17491939 47.24927806 33.54138388 48.765625 36.92578125 C49.29671875 38.10527344 49.8278125 39.28476563 50.375 40.5 C50.83648438 41.5415625 51.29796875 42.583125 51.7734375 43.65625 C52.77846355 46.1330254 52.77846355 46.1330254 55 47 C55.33 45.845 55.66 44.69 56 43.5 C57.75193452 38.23597138 60.21568495 33.38005648 62.7331543 28.45385742 C65.72794849 22.58913742 68.54478978 16.65371021 71.29760742 10.671875 C71.60802979 10.00285156 71.91845215 9.33382812 72.23828125 8.64453125 C72.641073 7.76825073 72.641073 7.76825073 73.05200195 6.87426758 C73.52126099 5.94650513 73.52126099 5.94650513 74 5 C74.39445312 4.10990234 74.78890625 3.21980469 75.1953125 2.30273438 C77 0 77 0 80.00268555 -0.56762695 C81.2019165 -0.54144287 82.40114746 -0.51525879 83.63671875 -0.48828125 C84.93544922 -0.47216797 86.23417969 -0.45605469 87.57226562 -0.43945312 C88.94402699 -0.39767609 90.31577177 -0.35535135 91.6875 -0.3125 C93.07092382 -0.28741745 94.45439077 -0.26460418 95.83789062 -0.24414062 C99.22634764 -0.18510827 102.61263385 -0.10280082 106 0 C106 1.98 106 3.96 106 6 C105.07767578 6.09087891 105.07767578 6.09087891 104.13671875 6.18359375 C103.32847656 6.26738281 102.52023437 6.35117188 101.6875 6.4375 C100.88699219 6.51871094 100.08648438 6.59992188 99.26171875 6.68359375 C96.83912821 6.95265693 96.83912821 6.95265693 94 8 C93.05516258 10.83451227 92.85847973 12.64962173 92.82299805 15.59155273 C92.81016281 16.51939072 92.79732758 17.4472287 92.78410339 18.40318298 C92.77671646 19.40321854 92.76932953 20.40325409 92.76171875 21.43359375 C92.74961113 22.97781761 92.74961113 22.97781761 92.73725891 24.55323792 C92.72342796 26.73119425 92.71270139 28.90917216 92.70483398 31.0871582 C92.68758459 34.42115035 92.64368484 37.75416018 92.59960938 41.08789062 C92.58948551 43.20311771 92.58096845 45.31835321 92.57421875 47.43359375 C92.54795662 48.93061073 92.54795662 48.93061073 92.52116394 50.45787048 C92.45783687 55.89747768 92.45783687 55.89747768 94.87915039 60.60864258 C97.21341657 62.14000933 99.00785646 62.76609232 101.75 63.25 C102.54921875 63.39953125 103.3484375 63.5490625 104.171875 63.703125 C104.77515625 63.80109375 105.3784375 63.8990625 106 64 C106 65.65 106 67.3 106 69 C90.82 69 75.64 69 60 69 C60 67.35 60 65.7 60 64 C63.96 63.34 67.92 62.68 72 62 C72 61.34 72 60.68 72 60 C72.66 60 73.32 60 74 60 C73.67 47.46 73.34 34.92 73 22 C70.9890625 26.269375 70.9890625 26.269375 68.9375 30.625 C65.06921222 38.80880477 61.08183115 46.92040287 57 55 C55.6851384 57.62382107 54.37380223 60.24939866 53.0625 62.875 C52.04166667 64.91666667 51.02083333 66.95833333 50 69 C48.35 69 46.7 69 45 69 C36.31769374 52.96954802 28.62924515 36.55169147 21 20 C20.9009016 25.03534236 20.8284242 30.07011342 20.78027344 35.10620117 C20.76019495 36.81821586 20.73292608 38.53016228 20.69824219 40.24194336 C20.64955599 42.70704008 20.62699427 45.1712279 20.609375 47.63671875 C20.58872986 48.39836838 20.56808472 49.16001801 20.54681396 49.94474792 C20.54525271 53.66732971 20.85995542 55.77980504 22.87695312 58.95117188 C25.16030673 61.15470263 26.71833482 61.96541708 29.75 62.8125 C30.54921875 63.04582031 31.3484375 63.27914062 32.171875 63.51953125 C33.07679687 63.75736328 33.07679687 63.75736328 34 64 C34 65.65 34 67.3 34 69 C22.78 69 11.56 69 0 69 C0 67.35 0 65.7 0 64 C3.3 63.34 6.6 62.68 10 62 C10 61.34 10 60.68 10 60 C10.66 60 11.32 60 12 60 C12.82846009 57.0959001 13.13467702 54.49478854 13.16113281 51.47851562 C13.17074036 50.59079468 13.1803479 49.70307373 13.19024658 48.78845215 C13.19449646 47.83732544 13.19874634 46.88619873 13.203125 45.90625 C13.20882507 44.92257446 13.21452515 43.93889893 13.22039795 42.92541504 C13.22983401 40.84758578 13.23637639 38.76974164 13.24023438 36.69189453 C13.24996396 33.51178065 13.28101035 30.33230669 13.3125 27.15234375 C13.31902804 25.13281633 13.32427929 23.1132843 13.328125 21.09375 C13.3404718 20.14262329 13.3528186 19.19149658 13.36553955 18.21154785 C13.36253845 17.3238269 13.35953735 16.43610596 13.35644531 15.52148438 C13.36009094 14.74301147 13.36373657 13.96453857 13.36749268 13.16247559 C12.89968467 10.40970403 11.88797992 9.02990835 10 7 C7.50592748 6.3049261 7.50592748 6.3049261 4.8125 6.25 C3.46091797 6.16492188 3.46091797 6.16492188 2.08203125 6.078125 C1.39496094 6.05234375 0.70789062 6.0265625 0 6 C0 4.02 0 2.04 0 0 Z " fill="#000000" transform="translate(1030,167)"/>
<path d="M0 0 C1.00615356 -0.00637985 2.01230713 -0.0127597 3.0489502 -0.01933289 C4.14976929 -0.02044571 5.25058838 -0.02155853 6.38476562 -0.02270508 C7.51942261 -0.02603348 8.65407959 -0.02936188 9.82312012 -0.03279114 C12.24096267 -0.0378716 14.65881227 -0.04019912 17.07666016 -0.04003906 C20.71985107 -0.04219423 24.36272342 -0.06024962 28.00585938 -0.0793457 C66.06516059 -0.17641575 66.06516059 -0.17641575 75.10351562 8.27026367 C78.33701568 11.65399271 79.273983 14.36552784 79.43164062 19.00854492 C79.07423257 24.43916172 77.16566241 28.36996681 73.29101562 32.14526367 C66.33730799 36.4433611 58.20752645 37.65880645 50.29101562 39.14526367 C51.11085938 39.3644043 51.93070313 39.58354492 52.77539062 39.80932617 C62.67732099 42.72305209 62.67732099 42.72305209 65.04101562 46.20776367 C66.29101562 49.14526367 66.29101562 49.14526367 66.29101562 52.14526367 C66.95101563 52.14526367 67.61101562 52.14526367 68.29101562 52.14526367 C69.91210938 54.04370117 69.91210938 54.04370117 71.72851562 56.52026367 C75.18654775 61.35059279 75.18654775 61.35059279 80.55273438 63.55932617 C81.35324219 63.62893555 82.15375 63.69854492 82.97851562 63.77026367 C83.78675781 63.8450293 84.595 63.91979492 85.42773438 63.99682617 C86.04261719 64.04581055 86.6575 64.09479492 87.29101562 64.14526367 C87.29101562 66.12526367 87.29101562 68.10526367 87.29101562 70.14526367 C83.35847554 70.24421465 79.42641817 70.31676787 75.49291992 70.36499023 C73.49762549 70.39497648 71.5026798 70.44580153 69.5078125 70.49682617 C67.62739258 70.51616211 67.62739258 70.51616211 65.70898438 70.53588867 C63.97297974 70.56730957 63.97297974 70.56730957 62.2019043 70.59936523 C59.29101562 70.14526367 59.29101562 70.14526367 57.38989258 68.24584961 C56.29101562 66.14526367 56.29101562 66.14526367 56.29101562 64.14526367 C55.63101563 64.14526367 54.97101562 64.14526367 54.29101562 64.14526367 C52.74023438 61.98510742 52.74023438 61.98510742 50.97851562 59.08276367 C48.86943787 55.65882154 46.7489376 52.31316131 44.35351562 49.08276367 C42.29101562 46.14526367 42.29101562 46.14526367 42.29101562 44.14526367 C41.63101563 44.14526367 40.97101562 44.14526367 40.29101562 44.14526367 C39.88238281 43.33702148 39.47375 42.5287793 39.05273438 41.69604492 C37.50878185 38.85519033 37.50878185 38.85519033 34.37304688 38.43823242 C33.29410156 38.40342773 32.21515625 38.36862305 31.10351562 38.33276367 C30.01683594 38.28506836 28.93015625 38.23737305 27.81054688 38.18823242 C26.97910156 38.17405273 26.14765625 38.15987305 25.29101562 38.14526367 C25.40565578 40.85439149 25.53238717 43.56206028 25.66601562 46.27026367 C25.69695313 47.03081055 25.72789062 47.79135742 25.75976562 48.57495117 C26.16420881 56.55615191 26.16420881 56.55615191 30.29101562 63.14526367 C32.49352555 63.60532713 32.49352555 63.60532713 34.91601562 63.77026367 C35.73328125 63.8450293 36.55054688 63.91979492 37.39257812 63.99682617 C38.0190625 64.04581055 38.64554688 64.09479492 39.29101562 64.14526367 C39.29101562 66.12526367 39.29101562 68.10526367 39.29101562 70.14526367 C24.44101562 70.14526367 9.59101562 70.14526367 -5.70898438 70.14526367 C-5.70898438 68.16526367 -5.70898438 66.18526367 -5.70898438 64.14526367 C-5.02191406 64.07049805 -4.33484375 63.99573242 -3.62695312 63.91870117 C-2.27537109 63.72147461 -2.27537109 63.72147461 -0.89648438 63.52026367 C-0.00316406 63.40424805 0.89015625 63.28823242 1.81054688 63.16870117 C4.49941814 62.33020753 4.49941814 62.33020753 5.92333984 59.68115234 C7.67171779 55.1610242 7.70499363 51.34794461 7.65429688 46.54760742 C7.65479538 45.63572159 7.65529388 44.72383575 7.6558075 43.78431702 C7.65347503 41.86383882 7.64379557 39.9433571 7.62719727 38.02294922 C7.60356451 35.0888326 7.60664782 32.15562348 7.61328125 29.22143555 C7.60770511 27.35098744 7.60059564 25.48054314 7.59179688 23.61010742 C7.59270828 22.73603745 7.59361969 21.86196747 7.59455872 20.96141052 C7.54414646 16.61868626 7.42745555 13.05095041 5.29101562 9.14526367 C2.03005609 6.72973809 -1.76061628 6.60084461 -5.70898438 6.14526367 C-5.75170538 4.47914462 -5.7496227 2.81143482 -5.70898438 1.14526367 C-4.07887865 -0.48484205 -2.24987206 0.00965725 0 0 Z M25.29101562 6.14526367 C25.29101562 14.72526367 25.29101562 23.30526367 25.29101562 32.14526367 C29.27164063 32.22776367 33.25226562 32.31026367 37.35351562 32.39526367 C39.21568726 32.4498877 39.21568726 32.4498877 41.11547852 32.50561523 C47.75386087 32.57209019 51.93170421 32.17980148 57.29101562 28.14526367 C60.0988923 24.72697902 59.59380014 20.36694495 59.29101562 16.14526367 C58.87370545 13.78997086 58.87370545 13.78997086 58.29101562 12.14526367 C57.63101562 12.14526367 56.97101563 12.14526367 56.29101562 12.14526367 C56.29101562 11.48526367 56.29101562 10.82526367 56.29101562 10.14526367 C49.33978448 6.29107269 43.58377925 5.62707278 35.72851562 5.89526367 C32.28414062 5.97776367 28.83976563 6.06026367 25.29101562 6.14526367 Z " fill="#000000" transform="translate(967.708984375,48.854736328125)"/>
<path d="M0 0 C24.09 0 48.18 0 73 0 C73 9.9 73 19.8 73 30 C71.35 30 69.7 30 68 30 C67.54560547 28.69675781 67.54560547 28.69675781 67.08203125 27.3671875 C63.25047176 16.2910569 63.25047176 16.2910569 54.4375 9.1875 C49.15080551 7.36118736 44.32572257 6.73832811 38.75 6.4375 C36.1925 6.293125 33.635 6.14875 31 6 C31 15.24 31 24.48 31 34 C33.97 32.68 36.94 31.36 40 30 C40.66 30 41.32 30 42 30 C42.28875 29.13375 42.5775 28.2675 42.875 27.375 C43.24625 26.26125 43.6175 25.1475 44 24 C44.33 22.989375 44.66 21.97875 45 20.9375 C45.91507878 18.24945607 46.9190946 15.62505597 48 13 C49.65 13 51.3 13 53 13 C53 28.51 53 44.02 53 60 C51.35 60 49.7 60 48 60 C47.75765625 59.20335937 47.5153125 58.40671875 47.265625 57.5859375 C44.80343625 49.15973295 44.80343625 49.15973295 40 42 C37.03 41.01 34.06 40.02 31 39 C31 47.25 31 55.5 31 64 C47.95020051 64.00997307 47.95020051 64.00997307 61.8125 55.4375 C65.11438741 51.41451074 66.55152561 47.21155093 67.8828125 42.22265625 C69 40 69 40 71.5546875 39.12109375 C72.36164063 39.08113281 73.16859375 39.04117188 74 39 C81.31057073 46.31057073 75 59.66129172 75 70 C50.25 70 25.5 70 0 70 C0 68.02 0 66.04 0 64 C1.04800781 63.85304688 1.04800781 63.85304688 2.1171875 63.703125 C3.02726562 63.55359375 3.93734375 63.4040625 4.875 63.25 C5.77992187 63.11078125 6.68484375 62.9715625 7.6171875 62.828125 C10.10284227 62.23930756 10.10284227 62.23930756 11.13076782 60.23657227 C12.08064712 57.79249145 12.2654877 56.00195525 12.29052734 53.38671875 C12.30328705 52.47897705 12.31604675 51.57123535 12.32919312 50.63598633 C12.33141876 49.66298584 12.33364441 48.68998535 12.3359375 47.6875 C12.3425943 46.68162842 12.3492511 45.67575684 12.35610962 44.6394043 C12.36622642 42.51450427 12.37092694 40.38957253 12.37060547 38.26464844 C12.37498406 35.01183961 12.41132952 31.76038181 12.44921875 28.5078125 C12.45508597 26.44271297 12.45905599 24.377607 12.4609375 22.3125 C12.47530853 21.33949951 12.48967957 20.36649902 12.50448608 19.36401367 C12.53853281 14.01784464 12.53853281 14.01784464 10.10498047 9.40722656 C7.93452517 7.95622861 6.30013253 7.26002651 3.75 6.75 C2.5125 6.5025 1.275 6.255 0 6 C0 4.02 0 2.04 0 0 Z " fill="#000000" transform="translate(1400,49)"/>
<path d="M0 0 C0.70079681 -0.00175232 1.40159363 -0.00350464 2.12362671 -0.00531006 C4.45093224 -0.00972813 6.77816239 -0.00679076 9.10546875 -0.00341797 C10.71590184 -0.00409102 12.32633484 -0.00506106 13.93676758 -0.00631714 C17.3162533 -0.00779405 20.69571265 -0.00563978 24.07519531 -0.00097656 C28.4167338 0.00472073 32.75821048 0.00144169 37.0997467 -0.00454903 C40.42647776 -0.00815482 43.75319405 -0.00701597 47.07992554 -0.00442123 C48.68118293 -0.00375202 50.28244165 -0.00458021 51.88369751 -0.00690079 C54.11781386 -0.00942762 56.35182875 -0.00558632 58.5859375 0 C60.49669067 0.00119339 60.49669067 0.00119339 62.44604492 0.00241089 C65.29296875 0.12939453 65.29296875 0.12939453 66.29296875 1.12939453 C66.3807248 3.2749828 66.39992094 5.42343874 66.390625 7.57080078 C66.38579102 9.52856445 66.38579102 9.52856445 66.38085938 11.52587891 C66.37250276 12.91455143 66.3640378 14.3032233 66.35546875 15.69189453 C66.35045541 17.08447109 66.34589222 18.47704935 66.34179688 19.86962891 C66.32996309 23.28959323 66.31347755 26.70947297 66.29296875 30.12939453 C64.31296875 30.12939453 62.33296875 30.12939453 60.29296875 30.12939453 C60.13441406 29.50033203 59.97585938 28.87126953 59.8125 28.22314453 C57.93186426 21.32401672 55.50457826 15.4517492 50.48046875 10.25439453 C44.50417043 7.18086968 37.88412997 6.77946079 31.29296875 6.50439453 C28.65296875 6.38064453 26.01296875 6.25689453 23.29296875 6.12939453 C23.29296875 15.36939453 23.29296875 24.60939453 23.29296875 34.12939453 C26.26296875 32.80939453 29.23296875 31.48939453 32.29296875 30.12939453 C32.95296875 30.12939453 33.61296875 30.12939453 34.29296875 30.12939453 C34.29296875 29.46939453 34.29296875 28.80939453 34.29296875 28.12939453 C34.95296875 28.12939453 35.61296875 28.12939453 36.29296875 28.12939453 C36.42574219 27.58798828 36.55851562 27.04658203 36.6953125 26.48876953 C37.3824488 23.77615303 38.11647334 21.07833431 38.85546875 18.37939453 C39.12488281 17.39455078 39.39429688 16.40970703 39.671875 15.39501953 C39.87683594 14.64736328 40.08179688 13.89970703 40.29296875 13.12939453 C41.94296875 13.12939453 43.59296875 13.12939453 45.29296875 13.12939453 C45.29296875 28.63939453 45.29296875 44.14939453 45.29296875 60.12939453 C43.64296875 60.12939453 41.99296875 60.12939453 40.29296875 60.12939453 C40.050625 59.24896484 39.80828125 58.36853516 39.55859375 57.46142578 C39.2234375 56.29998047 38.88828125 55.13853516 38.54296875 53.94189453 C38.218125 52.79333984 37.89328125 51.64478516 37.55859375 50.46142578 C36.17970131 46.83119351 35.13458071 44.78309344 32.29296875 42.12939453 C29.32296875 41.13939453 26.35296875 40.14939453 23.29296875 39.12939453 C23.29296875 47.37939453 23.29296875 55.62939453 23.29296875 64.12939453 C26.26296875 64.04689453 29.23296875 63.96439453 32.29296875 63.87939453 C33.21207031 63.86360352 34.13117188 63.8478125 35.078125 63.83154297 C42.48821117 63.52967411 47.69728259 61.44894387 53.23046875 56.50439453 C55.30287273 54.31692231 55.30287273 54.31692231 56.29296875 52.12939453 C56.95296875 52.12939453 57.61296875 52.12939453 58.29296875 52.12939453 C58.47472656 51.22447266 58.47472656 51.22447266 58.66015625 50.30126953 C58.82773438 49.50205078 58.9953125 48.70283203 59.16796875 47.87939453 C59.33039063 47.09048828 59.4928125 46.30158203 59.66015625 45.48876953 C60.2844695 43.16108309 61.14135417 41.23907502 62.29296875 39.12939453 C63.94296875 39.12939453 65.59296875 39.12939453 67.29296875 39.12939453 C67.29296875 49.35939453 67.29296875 59.58939453 67.29296875 70.12939453 C42.54296875 70.12939453 17.79296875 70.12939453 -7.70703125 70.12939453 C-7.70703125 68.14939453 -7.70703125 66.16939453 -7.70703125 64.12939453 C-7.01996094 64.05462891 -6.33289062 63.97986328 -5.625 63.90283203 C-4.27341797 63.70560547 -4.27341797 63.70560547 -2.89453125 63.50439453 C-2.00121094 63.38837891 -1.10789062 63.27236328 -0.1875 63.15283203 C2.50137127 62.31433839 2.50137127 62.31433839 3.92529297 59.6652832 C5.67367092 55.14515506 5.70694676 51.33207547 5.65625 46.53173828 C5.6567485 45.61985245 5.65724701 44.70796661 5.65776062 43.76844788 C5.65542816 41.84796968 5.6457487 39.92748796 5.62915039 38.00708008 C5.60551763 35.07296346 5.60860094 32.13975434 5.61523438 29.20556641 C5.60965824 27.3351183 5.60254877 25.464674 5.59375 23.59423828 C5.59466141 22.7201683 5.59557281 21.84609833 5.59651184 20.94554138 C5.54609958 16.60281712 5.42940868 13.03508127 3.29296875 9.12939453 C0.03200921 6.71386895 -3.75866315 6.58497547 -7.70703125 6.12939453 C-7.74975225 4.46327548 -7.74766957 2.79556568 -7.70703125 1.12939453 C-5.81581011 -0.76182661 -2.51111553 0.00156836 0 0 Z " fill="#000000" transform="translate(1065.70703125,48.87060546875)"/>
<path d="M0 0 C24.42 0 48.84 0 74 0 C74 9.57 74 19.14 74 29 C72.02 29 70.04 29 68 29 C67.18457569 26.91780951 66.37276811 24.83420239 65.5625 22.75 C65.11003906 21.58984375 64.65757812 20.4296875 64.19140625 19.234375 C63.29849367 16.81033692 62.54205635 14.51713525 62 12 C61.34 12 60.68 12 60 12 C60 11.34 60 10.68 60 10 C53.58384443 7.48882438 47.80067237 6.50025744 40.9375 6.3125 C37.988125 6.209375 35.03875 6.10625 32 6 C32 14.91 32 23.82 32 33 C40.81048241 29.66349758 40.81048241 29.66349758 45 23 C46.15299505 19.36555908 47.12829719 15.71134075 48 12 C49.65 12 51.3 12 53 12 C53 27.51 53 43.02 53 59 C51.35 59 49.7 59 48 59 C47.75765625 58.11957031 47.5153125 57.23914063 47.265625 56.33203125 C46.93046875 55.17058594 46.5953125 54.00914062 46.25 52.8125 C45.92515625 51.66394531 45.6003125 50.51539063 45.265625 49.33203125 C43.90041236 45.73781402 42.77554972 43.6606677 40 41 C37.36 40.01 34.72 39.02 32 38 C32 46.58 32 55.16 32 64 C42.86228083 63.52512306 42.86228083 63.52512306 53.23046875 60.62109375 C55 60 55 60 58 60 C58 59.34 58 58.68 58 58 C58.7425 57.443125 59.485 56.88625 60.25 56.3125 C65.96151211 51.50963754 67.92260551 44.94038615 70 38 C71.65 38 73.3 38 75 38 C75 48.23 75 58.46 75 69 C50.25 69 25.5 69 0 69 C0 67.35 0 65.7 0 64 C1.2375 63.7525 2.475 63.505 3.75 63.25 C7.52401107 62.31484681 9.55495822 61.12965347 12 58 C13.14254117 55.71491766 13.12668135 54.44351773 13.12939453 51.9050293 C13.13254669 51.06042648 13.13569885 50.21582367 13.13894653 49.34562683 C13.1369223 48.43106216 13.13489807 47.5164975 13.1328125 46.57421875 C13.13376923 45.63447708 13.13472595 44.69473541 13.13571167 43.72651672 C13.13639306 41.73507623 13.13454164 39.74363351 13.13037109 37.75219727 C13.12504013 34.71039802 13.13030822 31.66874765 13.13671875 28.62695312 C13.13605761 26.69270801 13.13477571 24.75846298 13.1328125 22.82421875 C13.13584885 21.46148079 13.13584885 21.46148079 13.13894653 20.07121277 C13.13579437 19.21715347 13.13264221 18.36309418 13.12939453 17.4831543 C13.12859894 16.73639938 13.12780334 15.98964447 13.12698364 15.22026062 C13.02416457 12.51500037 13.02416457 12.51500037 12 8 C6.06 7.01 6.06 7.01 0 6 C0 4.02 0 2.04 0 0 Z " fill="#000000" transform="translate(950,167)"/>
<path d="M0 0 C7.77377981 -0.07647933 15.54746147 -0.12877939 23.3215332 -0.16479492 C25.96252061 -0.17981981 28.60348332 -0.2002455 31.24438477 -0.22631836 C35.05491251 -0.26297878 38.86510844 -0.27979006 42.67578125 -0.29296875 C43.84393875 -0.30845261 45.01209625 -0.32393646 46.21565247 -0.33988953 C58.80797169 -0.34243639 69.75526427 2.4684766 79.26171875 11.0390625 C87.1980992 19.34218881 89.34841777 26.98941392 89.38085938 38.29125977 C89.28440244 42.53064701 88.53137699 46.05517286 87 50 C86.34 50 85.68 50 85 50 C84.855625 50.61875 84.71125 51.2375 84.5625 51.875 C84 54 84 54 83 56 C82.34 56 81.68 56 81 56 C81 56.66 81 57.32 81 58 C80.34 58 79.68 58 79 58 C79 58.66 79 59.32 79 60 C77.19921875 61.40234375 77.19921875 61.40234375 74.6875 62.9375 C73.88699219 63.44152344 73.08648438 63.94554687 72.26171875 64.46484375 C63.09364361 68.77987792 54.25352488 69.42092811 44.23828125 69.29296875 C42.96647507 69.28872391 41.69466888 69.28447906 40.38432312 69.28010559 C37.04197301 69.26626412 33.70026659 69.23942643 30.35809326 69.20599365 C26.93214405 69.17502058 23.5061277 69.16154276 20.08007812 69.14648438 C13.38654471 69.11357691 6.69330941 69.06349988 0 69 C0 67.35 0 65.7 0 64 C0.90492188 63.85304688 0.90492188 63.85304688 1.828125 63.703125 C2.62734375 63.55359375 3.4265625 63.4040625 4.25 63.25 C5.03890625 63.11078125 5.8278125 62.9715625 6.640625 62.828125 C9.85333671 61.70048447 10.97487862 60.79091475 13 58 C13.58879869 54.56458002 13.51230014 51.16504213 13.4609375 47.6875 C13.46002106 46.68162842 13.45910461 45.67575684 13.4581604 44.6394043 C13.45212309 42.51443763 13.43637329 40.38947952 13.41162109 38.26464844 C13.37513518 35.01205078 13.37060165 31.76059335 13.37109375 28.5078125 C13.36126159 26.44269849 13.34960416 24.37759219 13.3359375 22.3125 C13.33259903 20.85299927 13.33259903 20.85299927 13.32919312 19.36401367 C13.31005356 18.00240112 13.31005356 18.00240112 13.29052734 16.61328125 C13.28290375 15.81704346 13.27528015 15.02080566 13.26742554 14.20043945 C12.96655736 11.72482621 12.31649706 10.11022838 11 8 C8.70370006 6.85185003 6.92301914 6.69230191 4.375 6.4375 C3.55773437 6.35371094 2.74046875 6.26992187 1.8984375 6.18359375 C1.27195312 6.12300781 0.64546875 6.06242188 0 6 C0 4.02 0 2.04 0 0 Z M32 6 C32 25.14 32 44.28 32 64 C48.97114124 65.00901652 48.97114124 65.00901652 62.56640625 57.5703125 C68.21171733 51.38662026 69.39156209 43.8424232 69.375 35.75 C69.37483887 35.00854736 69.37467773 34.26709473 69.37451172 33.50317383 C69.20903747 25.47941462 66.5937001 19.07408533 63 12 C62.34 12 61.68 12 61 12 C61 11.34 61 10.68 61 10 C50.5954378 4.64620511 50.5954378 4.64620511 32 6 Z " fill="#000000" transform="translate(853,167)"/>
<path d="M0 0 C0.74446381 0.00359528 1.48892761 0.00719055 2.25595093 0.01089478 C3.0363826 0.01074875 3.81681427 0.01060272 4.62089539 0.01045227 C7.21273534 0.01115158 9.80450432 0.01894481 12.39633179 0.02676392 C14.18852194 0.02862803 15.9807126 0.03005196 17.77290344 0.03105164 C22.49938351 0.03487733 27.22583305 0.04470805 31.95230103 0.05575562 C36.77153104 0.06596863 41.59076596 0.07054902 46.41000366 0.07559204 C55.87290773 0.08633027 65.3357891 0.10340731 74.79867554 0.12442017 C76.35342818 3.23392545 75.94067078 6.52889047 75.93148804 9.94082642 C75.93244476 10.71248642 75.93340149 11.48414642 75.93438721 12.27919006 C75.935068 13.91078778 75.93322073 15.5423882 75.92904663 17.17398071 C75.92368967 19.68030838 75.92899873 22.18645742 75.93539429 24.69277954 C75.93473363 26.27546223 75.93345273 27.85814481 75.93148804 29.44082642 C75.93351227 30.1949733 75.9355365 30.94912018 75.93762207 31.72612 C75.91363178 37.00946392 75.91363178 37.00946392 74.79867554 38.12442017 C73.13250439 38.16505849 71.46479459 38.16714117 69.79867554 38.12442017 C69.62851929 37.27879517 69.45836304 36.43317017 69.28305054 35.56192017 C67.83921166 28.80352543 66.15174802 23.15995063 62.79867554 17.12442017 C62.30367554 15.63942017 62.30367554 15.63942017 61.79867554 14.12442017 C61.13867554 14.12442017 60.47867554 14.12442017 59.79867554 14.12442017 C59.79867554 13.46442017 59.79867554 12.80442017 59.79867554 12.12442017 C59.13867554 12.12442017 58.47867554 12.12442017 57.79867554 12.12442017 C57.79867554 11.46442017 57.79867554 10.80442017 57.79867554 10.12442017 C56.40418445 9.64136116 55.00800847 9.163165 53.61117554 8.68692017 C52.83387085 8.42008423 52.05656616 8.15324829 51.25570679 7.87832642 C48.7847641 7.12015163 46.33457318 6.61386873 43.79867554 6.12442017 C43.91617565 13.61762095 44.04100898 21.1106736 44.17098999 28.60366821 C44.2143552 31.1537701 44.2560291 33.70390133 44.29598999 36.25405884 C44.35365393 39.91536306 44.41735979 43.57651938 44.48226929 47.23770142 C44.49898178 48.38152786 44.51569427 49.52535431 44.53291321 50.70384216 C44.55285843 51.76471542 44.57280365 52.82558868 44.59335327 53.91860962 C44.61666969 55.32092583 44.61666969 55.32092583 44.64045715 56.75157166 C44.70840262 59.2742853 44.70840262 59.2742853 45.79867554 62.12442017 C48.39125223 62.9886124 50.13905261 63.30022949 52.81039429 63.44082642 C53.94638062 63.50366821 53.94638062 63.50366821 55.10531616 63.56777954 C55.89099976 63.60709595 56.67668335 63.64641235 57.48617554 63.68692017 C58.68210327 63.75169556 58.68210327 63.75169556 59.90219116 63.81777954 C61.86749001 63.92369385 63.8330605 64.02454567 65.79867554 64.12442017 C65.79867554 66.10442017 65.79867554 68.08442017 65.79867554 70.12442017 C45.33867554 70.12442017 24.87867554 70.12442017 3.79867554 70.12442017 C3.79867554 68.14442017 3.79867554 66.16442017 3.79867554 64.12442017 C4.99105835 64.06383423 6.18344116 64.00324829 7.41195679 63.94082642 C8.97837478 63.85640868 10.54478042 63.77176129 12.11117554 63.68692017 C12.89685913 63.64760376 13.68254272 63.60828735 14.49203491 63.56777954 C15.24935913 63.52588501 16.00668335 63.48399048 16.78695679 63.44082642 C17.48345337 63.4041687 18.17994995 63.36751099 18.89755249 63.32974243 C21.02033274 63.16860864 21.02033274 63.16860864 23.79867554 62.12442017 C24.79692458 59.12967302 24.95191585 57.05096683 25.0039978 53.91860962 C25.02394302 52.85773636 25.04388824 51.7968631 25.06443787 50.70384216 C25.08115036 49.56001572 25.09786285 48.41618927 25.11508179 47.23770142 C25.13586288 46.06555588 25.15664398 44.89341034 25.17805481 43.68574524 C25.24351372 39.93619731 25.3024185 36.18657853 25.36117554 32.43692017 C25.40436422 29.89719926 25.44797862 27.35748555 25.49203491 24.81777954 C25.5991914 18.58673494 25.70096474 12.35561965 25.79867554 6.12442017 C24.52419556 6.43524536 23.24971558 6.74607056 21.93661499 7.0663147 C21.21972 7.24115387 20.50282501 7.41599304 19.76420593 7.59613037 C14.58558602 8.98802543 10.81420479 11.68048231 7.79867554 16.12442017 C7.13867554 16.12442017 6.47867554 16.12442017 5.79867554 16.12442017 C5.67492554 16.65164673 5.55117554 17.17887329 5.42367554 17.72207642 C4.35256893 21.83914242 3.01471946 25.87645727 1.73617554 29.93301392 C0.93520235 32.65966015 0.30011961 35.32991414 -0.20132446 38.12442017 C-2.18132446 38.12442017 -4.16132446 38.12442017 -6.20132446 38.12442017 C-6.22597374 32.87336574 -6.24416014 27.62234471 -6.2562561 22.37124634 C-6.26129665 20.58347996 -6.268129 18.79571772 -6.27676392 17.00796509 C-6.28884177 14.44390848 -6.29455541 11.87990619 -6.29898071 9.31582642 C-6.304142 8.51165787 -6.30930328 7.70748932 -6.31462097 6.87895203 C-6.31481661 4.96040302 -6.26334429 3.04196648 -6.20132446 1.12442017 C-4.48145241 -0.59545189 -2.29255418 0.00467229 0 0 Z " fill="#000000" transform="translate(782.2013244628906,48.875579833984375)"/>
<path d="M0 0 C1.95873047 -0.01836914 1.95873047 -0.01836914 3.95703125 -0.03710938 C5.83068359 -0.04000977 5.83068359 -0.04000977 7.7421875 -0.04296875 C8.89315918 -0.04707764 10.04413086 -0.05118652 11.22998047 -0.05541992 C14.125 0.1875 14.125 0.1875 17.125 2.1875 C17.125 2.8475 17.125 3.5075 17.125 4.1875 C17.785 4.1875 18.445 4.1875 19.125 4.1875 C19.125 4.8475 19.125 5.5075 19.125 6.1875 C19.785 6.1875 20.445 6.1875 21.125 6.1875 C22.359375 7.41015625 22.359375 7.41015625 23.875 9.25 C26.39451 12.23052672 28.98151061 15.11974124 31.6640625 17.953125 C32.29344727 18.61820068 32.92283203 19.28327637 33.57128906 19.96850586 C34.84845487 21.31373329 36.12901561 22.65574637 37.41308594 23.99438477 C38.30302246 24.93495728 38.30302246 24.93495728 39.2109375 25.89453125 C39.7476709 26.4563208 40.2844043 27.01811035 40.83740234 27.59692383 C42.125 29.1875 42.125 29.1875 43.125 32.1875 C43.785 32.1875 44.445 32.1875 45.125 32.1875 C45.125 32.8475 45.125 33.5075 45.125 34.1875 C45.785 34.1875 46.445 34.1875 47.125 34.1875 C47.125 34.8475 47.125 35.5075 47.125 36.1875 C47.785 36.1875 48.445 36.1875 49.125 36.1875 C49.125 36.8475 49.125 37.5075 49.125 38.1875 C49.785 38.1875 50.445 38.1875 51.125 38.1875 C52.8393618 40.14677063 54.50905168 42.14630212 56.125 44.1875 C56.24147041 39.64605006 56.31234502 35.10498606 56.375 30.5625 C56.40851563 29.27730469 56.44203125 27.99210937 56.4765625 26.66796875 C56.7303852 17.56658256 56.7303852 17.56658256 52.125 10.1875 C48.88518873 7.77840957 46.10822182 6.75653169 42.125 6.1875 C42.125 4.2075 42.125 2.2275 42.125 0.1875 C54.005 0.1875 65.885 0.1875 78.125 0.1875 C78.125 2.1675 78.125 4.1475 78.125 6.1875 C77.09439453 6.42533203 77.09439453 6.42533203 76.04296875 6.66796875 C70.33329199 8.00699184 70.33329199 8.00699184 66.0625 11.75 C65.5984375 12.9565625 65.5984375 12.9565625 65.125 14.1875 C64.795 14.8475 64.465 15.5075 64.125 16.1875 C64.00582832 17.91277121 63.94782674 19.64242898 63.91967773 21.37158203 C63.89973251 22.45255157 63.87978729 23.53352112 63.85923767 24.64724731 C63.84252518 25.81810883 63.82581268 26.98897034 63.80859375 28.1953125 C63.7774221 29.9889473 63.7774221 29.9889473 63.74562073 31.81881714 C63.68007711 35.64998464 63.62121782 39.48122238 63.5625 43.3125 C63.51931937 45.90495527 63.47570523 48.49740336 63.43164062 51.08984375 C63.32439081 57.45565427 63.2226334 63.82153513 63.125 70.1875 C61.145 70.1875 59.165 70.1875 57.125 70.1875 C57.125 69.5275 57.125 68.8675 57.125 68.1875 C56.465 68.1875 55.805 68.1875 55.125 68.1875 C55.125 67.5275 55.125 66.8675 55.125 66.1875 C54.465 66.1875 53.805 66.1875 53.125 66.1875 C53.125 65.5275 53.125 64.8675 53.125 64.1875 C52.465 64.1875 51.805 64.1875 51.125 64.1875 C51.125 63.5275 51.125 62.8675 51.125 62.1875 C50.465 62.1875 49.805 62.1875 49.125 62.1875 C49.125 61.5275 49.125 60.8675 49.125 60.1875 C48.465 60.1875 47.805 60.1875 47.125 60.1875 C47.125 59.5275 47.125 58.8675 47.125 58.1875 C46.465 58.1875 45.805 58.1875 45.125 58.1875 C43.68847656 56.74731445 43.68847656 56.74731445 42.015625 54.73828125 C38.1089986 50.14445295 34.01886196 45.75466008 29.875 41.375 C28.81539062 40.25061523 28.81539062 40.25061523 27.734375 39.10351562 C24.14706466 35.26337941 24.14706466 35.26337941 20.40332031 31.5793457 C19.125 30.1875 19.125 30.1875 19.125 28.1875 C18.465 28.1875 17.805 28.1875 17.125 28.1875 C17.125 27.5275 17.125 26.8675 17.125 26.1875 C16.465 26.1875 15.805 26.1875 15.125 26.1875 C15.125 25.5275 15.125 24.8675 15.125 24.1875 C14.465 24.1875 13.805 24.1875 13.125 24.1875 C13.125 23.5275 13.125 22.8675 13.125 22.1875 C12.465 22.1875 11.805 22.1875 11.125 22.1875 C11.125 21.5275 11.125 20.8675 11.125 20.1875 C10.465 20.1875 9.805 20.1875 9.125 20.1875 C9.125 19.5275 9.125 18.8675 9.125 18.1875 C8.465 18.1875 7.805 18.1875 7.125 18.1875 C6.795 17.5275 6.465 16.8675 6.125 16.1875 C6.05072332 21.7925325 5.99633792 27.39727711 5.96020508 33.00268555 C5.94513872 34.90866081 5.92468176 36.81460152 5.89868164 38.72045898 C5.86220358 41.46346576 5.84525208 44.20601328 5.83203125 46.94921875 C5.81654739 47.79836349 5.80106354 48.64750824 5.78511047 49.52238464 C5.7837729 54.24742326 6.05544028 57.34598325 9.125 61.1875 C11.95285499 63.09221224 14.51216131 63.51577894 17.875 63.8125 C18.67421875 63.88726562 19.4734375 63.96203125 20.296875 64.0390625 C20.90015625 64.08804688 21.5034375 64.13703125 22.125 64.1875 C22.125 66.1675 22.125 68.1475 22.125 70.1875 C9.585 70.1875 -2.955 70.1875 -15.875 70.1875 C-15.875 65.1875 -15.875 65.1875 -14.875 64.1875 C-13.26625 64.0328125 -13.26625 64.0328125 -11.625 63.875 C-7.52084499 63.12257158 -5.83040089 62.05597734 -2.875 59.1875 C-1.71470864 56.86691728 -1.73049687 55.47771226 -1.69799805 52.89306641 C-1.68516281 52.0051944 -1.67232758 51.11732239 -1.65910339 50.20254517 C-1.65171646 49.24109589 -1.64432953 48.27964661 -1.63671875 47.2890625 C-1.628647 46.30255707 -1.62057526 45.31605164 -1.61225891 44.2996521 C-1.59841462 42.20987712 -1.58769402 40.12007949 -1.57983398 38.03027344 C-1.56260638 34.83224784 -1.5187214 31.63525195 -1.47460938 28.4375 C-1.46448391 26.40886178 -1.45596735 24.38021476 -1.44921875 22.3515625 C-1.42295662 20.91546127 -1.42295662 20.91546127 -1.39616394 19.4503479 C-1.34913672 14.16589474 -1.34913672 14.16589474 -3.75415039 9.60400391 C-6.08995431 8.04393319 -7.86699761 7.4242063 -10.625 6.9375 C-11.42421875 6.78796875 -12.2234375 6.6384375 -13.046875 6.484375 C-13.65015625 6.38640625 -14.2534375 6.2884375 -14.875 6.1875 C-14.917721 4.52138095 -14.91563832 2.85367115 -14.875 1.1875 C-12.12606228 -1.56143772 -3.70749478 0.00181918 0 0 Z " fill="#000000" transform="translate(1318.875,48.8125)"/>
<path d="M0 0 C1.37853149 -0.00398804 1.37853149 -0.00398804 2.78491211 -0.00805664 C10.43175236 0.16299723 16.25119093 1.997032 23.06640625 5.34765625 C25.83245123 6.7410427 25.83245123 6.7410427 28.33984375 6.43359375 C30.36789084 5.61405257 30.36789084 5.61405257 31 2.5625 C32.98 2.5625 34.96 2.5625 37 2.5625 C37 11.1425 37 19.7225 37 28.5625 C35.02 28.5625 33.04 28.5625 31 28.5625 C26.77676538 19.15247722 26.77676538 19.15247722 25 14.5625 C24.34 14.5625 23.68 14.5625 23 14.5625 C23 13.9025 23 13.2425 23 12.5625 C22.13375 12.294375 21.2675 12.02625 20.375 11.75 C17 10.5625 17 10.5625 14 9 C8.3851211 6.30953719 2.15443747 5.93494555 -4 6.5625 C-8.06662662 8.11521198 -9.57519602 8.92529402 -12 12.5625 C-12.04811459 15.62822167 -12.04811459 15.62822167 -11 18.5625 C-4.04656839 23.89819446 7.28165495 25.32924373 15.63720703 27.33203125 C22.52313532 29.01637586 28.6712975 31.39814875 35 34.5625 C35 35.2225 35 35.8825 35 36.5625 C35.66 36.5625 36.32 36.5625 37 36.5625 C37 37.2225 37 37.8825 37 38.5625 C37.66 38.5625 38.32 38.5625 39 38.5625 C41.3534257 42.27149891 41.3318354 45.6124068 41.375 49.9375 C41.40335938 51.22398438 41.43171875 52.51046875 41.4609375 53.8359375 C40.79530305 59.21742282 38.21941009 62.96448982 34 66.3125 C25.88810528 72.39642104 16.87028767 72.18347836 7 71.5625 C2.76755348 70.72180857 -1.14807944 69.35471046 -5.109375 67.66015625 C-10.24478417 65.50049774 -13.50546977 65.48321728 -19 66.5625 C-19.66 68.2125 -20.32 69.8625 -21 71.5625 C-22.65 71.5625 -24.3 71.5625 -26 71.5625 C-26 60.3425 -26 49.1225 -26 37.5625 C-24.35 37.5625 -22.7 37.5625 -21 37.5625 C-20.18618205 39.49944678 -19.37399084 41.43707711 -18.5625 43.375 C-18.11003906 44.45394531 -17.65757813 45.53289062 -17.19140625 46.64453125 C-16.39624987 48.5920126 -15.66520352 50.56688943 -15 52.5625 C-14.34 52.5625 -13.68 52.5625 -13 52.5625 C-13 53.2225 -13 53.8825 -13 54.5625 C-12.34 54.5625 -11.68 54.5625 -11 54.5625 C-11 55.2225 -11 55.8825 -11 56.5625 C-10.360625 56.789375 -9.72125 57.01625 -9.0625 57.25 C-6.43677997 58.37530858 -4.14334943 59.62213156 -1.6875 61.0625 C4.55406325 64.57143854 10.75974718 66.33824137 18 65.5625 C22.42169952 63.92751821 25.35040004 62.53689994 28 58.5625 C27.83882346 55.41955746 27.31312274 53.93063079 25.265625 51.5234375 C22.79249144 49.38289777 20.98503003 48.58636256 17.875 47.625 C16.82054687 47.295 15.76609375 46.965 14.6796875 46.625 C11.23958168 45.63167857 7.79047163 44.68681455 4.33325195 43.75561523 C-19.68036603 37.2653803 -19.68036603 37.2653803 -25.8125 27.75 C-27.88873577 22.17694608 -27.78049072 17.71941662 -25.375 12.375 C-19.82537557 2.44409313 -10.55359475 -0.02213301 0 0 Z " fill="#000000" transform="translate(1511,48.4375)"/>
<path d="M0 0 C24.75 0 49.5 0 75 0 C75 10.89 75 21.78 75 33 C73.35 33 71.7 33 70 33 C69.85304688 32.31035156 69.70609375 31.62070313 69.5546875 30.91015625 C67.59691447 22.70776237 64.54964654 16.54964654 58.5625 10.5625 C52.62580407 6.94256346 46.33943232 6.6380245 39.5625 6.375 C36.736875 6.25125 33.91125 6.1275 31 6 C31 14.25 31 22.5 31 31 C39.49050512 28.96985065 39.49050512 28.96985065 42.4375 25.375 C44.31611989 21.31718105 45.25815839 17.3924832 46 13 C47.98 13 49.96 13 52 13 C52 26.53 52 40.06 52 54 C50.02 54 48.04 54 46 54 C45.8453125 52.4221875 45.8453125 52.4221875 45.6875 50.8125 C45.01750713 47.09708498 44.03743581 45.10044579 42 42 C42 41.34 42 40.68 42 40 C41.34 40 40.68 40 40 40 C40 39.34 40 38.68 40 38 C37.03 37.34 34.06 36.68 31 36 C31.11004161 39.58395685 31.24063297 43.16687917 31.375 46.75 C31.4059375 47.76578125 31.436875 48.7815625 31.46875 49.828125 C31.50742187 50.8078125 31.54609375 51.7875 31.5859375 52.796875 C31.63306885 54.14797363 31.63306885 54.14797363 31.68115234 55.52636719 C32.01600035 58.12413135 32.6042984 59.79391103 34 62 C36.56893838 63.28446919 38.76576337 63.32977144 41.625 63.5625 C42.62789062 63.64628906 43.63078125 63.73007813 44.6640625 63.81640625 C45.43492187 63.87699219 46.20578125 63.93757813 47 64 C47 65.98 47 67.96 47 70 C31.49 70 15.98 70 0 70 C0 68.02 0 66.04 0 64 C1.04800781 63.85304688 1.04800781 63.85304688 2.1171875 63.703125 C3.02726563 63.55359375 3.93734375 63.4040625 4.875 63.25 C5.77992188 63.11078125 6.68484375 62.9715625 7.6171875 62.828125 C10.10284227 62.23930756 10.10284227 62.23930756 11.13076782 60.23657227 C12.08064712 57.79249145 12.2654877 56.00195525 12.29052734 53.38671875 C12.30328705 52.47897705 12.31604675 51.57123535 12.32919312 50.63598633 C12.33141876 49.66298584 12.33364441 48.68998535 12.3359375 47.6875 C12.3425943 46.68162842 12.3492511 45.67575684 12.35610962 44.6394043 C12.36622642 42.51450427 12.37092694 40.38957253 12.37060547 38.26464844 C12.37498406 35.01183961 12.41132952 31.76038181 12.44921875 28.5078125 C12.45508597 26.44271297 12.45905599 24.377607 12.4609375 22.3125 C12.47530853 21.33949951 12.48967957 20.36649902 12.50448608 19.36401367 C12.53853281 14.01784464 12.53853281 14.01784464 10.10498047 9.40722656 C7.93452517 7.95622861 6.30013253 7.26002651 3.75 6.75 C2.5125 6.5025 1.275 6.255 0 6 C0 4.02 0 2.04 0 0 Z " fill="#000000" transform="translate(598,49)"/>
<path d="M0 0 C6.81761894 -0.0252689 13.63522589 -0.04283244 20.45288086 -0.05493164 C22.77417451 -0.05997333 25.09546497 -0.06680651 27.41674805 -0.07543945 C30.74528795 -0.08751225 34.07378602 -0.09322979 37.40234375 -0.09765625 C38.44712387 -0.10281754 39.49190399 -0.10797882 40.56834412 -0.11329651 C41.52926468 -0.11337204 42.49018524 -0.11344757 43.48022461 -0.11352539 C44.33071884 -0.115746 45.18121307 -0.11796661 46.05747986 -0.12025452 C48 0 48 0 49 1 C49.04063832 2.66617115 49.042721 4.33388095 49 6 C48.33613281 6.03738281 47.67226563 6.07476562 46.98828125 6.11328125 C39.99169809 6.57768142 39.99169809 6.57768142 34 10 C32.71338137 13.85985589 32.83754136 17.51991414 32.83203125 21.54296875 C32.82870285 22.38539627 32.82537445 23.22782379 32.82194519 24.09577942 C32.81688185 25.88033503 32.81453668 27.66490011 32.81469727 29.44946289 C32.8125222 32.15983041 32.79439206 34.86978323 32.77539062 37.58007812 C32.77245417 39.31770695 32.77047106 41.0553377 32.76953125 42.79296875 C32.76234573 43.5953447 32.75516022 44.39772064 32.74775696 45.22441101 C32.76868399 50.46545195 33.54938811 54.95968962 35 60 C35.66 60 36.32 60 37 60 C37 60.66 37 61.32 37 62 C47.26661982 65.66977049 55.38827647 66.32197279 65.64453125 62.19921875 C69.80475194 60.08116278 71.38588402 57.54207924 73.07104492 53.31054688 C74.67975705 47.5775281 74.33293768 41.68974125 74.31567383 35.77783203 C74.31250885 33.50634985 74.33602571 31.23616581 74.36132812 28.96484375 C74.3636011 27.50781413 74.36430462 26.05078104 74.36328125 24.59375 C74.36626221 23.28083984 74.36924316 21.96792969 74.37231445 20.61523438 C73.82322377 15.28347387 72.3258937 12.09017927 68.1875 8.6875 C65.00515869 7.00273107 62.56195904 6.33923419 59 6 C59 4.02 59 2.04 59 0 C70.55 0 82.1 0 94 0 C94 1.98 94 3.96 94 6 C91.03 6.66 88.06 7.32 85 8 C85 8.66 85 9.32 85 10 C84.34 10 83.68 10 83 10 C81.82686342 13.74339904 81.82588871 17.35330916 81.75390625 21.2578125 C81.72093814 22.70313038 81.68772704 24.14844273 81.65429688 25.59375 C81.60718541 27.85119452 81.56278725 30.10862165 81.52319336 32.36621094 C81.07759568 56.62593624 81.07759568 56.62593624 72.4375 65.6875 C65.2608492 71.15374508 56.53497737 71.26384844 47.875 71.3125 C47.0401709 71.31805908 46.2053418 71.32361816 45.34521484 71.3293457 C35.23871825 71.21284717 27.17196259 69.14366972 19 63 C13.29058901 56.59431938 13.86910126 48.40830084 13.82421875 40.265625 C13.80105079 38.62368467 13.77693476 36.98175749 13.75195312 35.33984375 C13.71669856 32.78327149 13.6873813 30.22719743 13.67407227 27.67041016 C13.65862169 25.18072873 13.61848084 22.69243892 13.57421875 20.203125 C13.57612717 19.43953674 13.57803558 18.67594849 13.58000183 17.88922119 C13.49861087 14.36209746 13.28857539 12.37606204 11.11157227 9.5390625 C8.77303851 7.83457449 7.08600688 7.2504718 4.25 6.75 C3.45078125 6.60046875 2.6515625 6.4509375 1.828125 6.296875 C1.22484375 6.19890625 0.6215625 6.1009375 0 6 C0 4.02 0 2.04 0 0 Z " fill="#000000" transform="translate(863,49)"/>
<path d="M0 0 C6.81761894 -0.0252689 13.63522589 -0.04283244 20.45288086 -0.05493164 C22.77417451 -0.05997333 25.09546497 -0.06680651 27.41674805 -0.07543945 C30.74528795 -0.08751225 34.07378602 -0.09322979 37.40234375 -0.09765625 C38.44712387 -0.10281754 39.49190399 -0.10797882 40.56834412 -0.11329651 C41.52926468 -0.11337204 42.49018524 -0.11344757 43.48022461 -0.11352539 C44.33071884 -0.115746 45.18121307 -0.11796661 46.05747986 -0.12025452 C48 0 48 0 49 1 C49.04063832 2.66617115 49.042721 4.33388095 49 6 C48.33613281 6.03738281 47.67226563 6.07476562 46.98828125 6.11328125 C39.96846492 6.54792209 39.96846492 6.54792209 34 10 C32.66850403 14.06184449 32.83802513 18.19122292 32.83203125 22.421875 C32.82870285 23.24069153 32.82537445 24.05950806 32.82194519 24.90313721 C32.81688889 26.63463786 32.81453646 28.36614822 32.81469727 30.09765625 C32.81251928 32.72672926 32.79437345 35.35537664 32.77539062 37.984375 C32.77245461 39.67187358 32.77047121 41.35937413 32.76953125 43.046875 C32.76234573 43.82424011 32.75516022 44.60160522 32.74775696 45.40252686 C32.76906467 50.57789475 33.47018771 55.04331198 35 60 C36.61116531 61.47462432 36.61116531 61.47462432 39 62 C40.19625 62.53625 41.3925 63.0725 42.625 63.625 C50.63772893 66.51313704 57.86610824 65.3188826 65.64453125 62.203125 C70.46859621 59.73909182 72.37586909 55.96951542 74 51 C74.18829089 48.31863114 74.28066908 45.74546877 74.265625 43.06640625 C74.26753845 42.31084946 74.2694519 41.55529266 74.27142334 40.77684021 C74.27277991 39.18414984 74.26912042 37.59144821 74.26074219 35.9987793 C74.25004983 33.57380054 74.26064739 31.14956503 74.2734375 28.72460938 C74.27211552 27.17187338 74.26955233 25.61913784 74.265625 24.06640625 C74.26967346 23.34747696 74.27372192 22.62854767 74.27789307 21.88783264 C74.23804529 17.56361704 73.72545908 13.97889656 72 10 C69.84575944 8.60264182 69.84575944 8.60264182 67 8 C66.30519531 7.81695312 65.61039063 7.63390625 64.89453125 7.4453125 C62.93582437 6.93916878 60.96838887 6.46707532 59 6 C59 4.02 59 2.04 59 0 C70.55 0 82.1 0 94 0 C94 1.98 94 3.96 94 6 C91.03 6.66 88.06 7.32 85 8 C85 8.66 85 9.32 85 10 C84.34 10 83.68 10 83 10 C81.76846221 13.85468226 81.81223613 17.72551636 81.75390625 21.73046875 C81.72094728 23.27148962 81.687736 24.8125051 81.65429688 26.35351562 C81.60710525 28.76468974 81.5626909 31.17584536 81.52319336 33.5871582 C81.1294612 56.52971917 81.1294612 56.52971917 75 64 C74.34 64 73.68 64 73 64 C73 64.66 73 65.32 73 66 C71.43979133 66.65134925 69.87671421 67.29582964 68.3125 67.9375 C67.00732422 68.47697266 67.00732422 68.47697266 65.67578125 69.02734375 C55.29357202 72.8013147 39.3820275 72.78062511 29 69 C22.90546607 66.1262429 18.05858259 62.11716519 15 56 C14.87892723 53.00954004 14.81423576 50.03843016 14.7890625 47.046875 C14.76098522 45.21223079 14.7323207 43.3775955 14.703125 41.54296875 C14.66192407 38.64860362 14.62504017 35.75440329 14.59863281 32.85986328 C14.57094493 30.06768306 14.52506388 27.27626106 14.4765625 24.484375 C14.47330963 23.62479187 14.47005676 22.76520874 14.46670532 21.87957764 C14.36450577 16.85831797 13.76607377 13.35902444 11 9 C7.75160053 6.5637004 3.95529428 6.45638011 0 6 C0 4.02 0 2.04 0 0 Z " fill="#000000" transform="translate(679,49)"/>
<path d="M0 0 C14.85 0 29.7 0 45 0 C45 1.98 45 3.96 45 6 C41.7 6.33 38.4 6.66 35 7 C35.495 9.475 35.495 9.475 36 12 C36.66 12 37.32 12 38 12 C39.55078125 14.16015625 39.55078125 14.16015625 41.3125 17.0625 C43.42157775 20.48644213 45.54207802 23.83210236 47.9375 27.0625 C50 30 50 30 50 32 C53.76430913 30.74523029 54.05044108 29.30577382 56 26 C56.66 26 57.32 26 58 26 C58.28875 25.236875 58.5775 24.47375 58.875 23.6875 C60 21 60 21 62 18 C62.66 18 63.32 18 64 18 C64.335939 16.5422647 64.66866624 15.08378894 65 13.625 C65.2784375 12.40683594 65.2784375 12.40683594 65.5625 11.1640625 C66.06605239 9.04125049 66.06605239 9.04125049 66 7 C62.04 6.67 58.08 6.34 54 6 C54 4.02 54 2.04 54 0 C66.21 0 78.42 0 91 0 C91 1.98 91 3.96 91 6 C90.1646875 6.11214844 90.1646875 6.11214844 89.3125 6.2265625 C88.549375 6.35804688 87.78625 6.48953125 87 6.625 C86.2575 6.74101562 85.515 6.85703125 84.75 6.9765625 C76.77507566 9.94450309 71.75002135 16.30459785 66.8125 22.9375 C66.22275391 23.71029297 65.63300781 24.48308594 65.02539062 25.27929688 C63.87061682 26.79887131 62.72653052 28.32663766 61.59423828 29.86303711 C60.58710601 31.21302621 59.55196593 32.54295166 58.47998047 33.84204102 C54.97467724 38.22958486 54.26712322 41.49992046 54.5 47.0625 C54.49742188 47.74376953 54.49484375 48.42503906 54.4921875 49.12695312 C54.58139813 53.77036616 55.45948286 57.11416356 58 61 C60.78624338 62.96879181 63.39049648 63.32857322 66.75 63.625 C67.54921875 63.69976562 68.3484375 63.77453125 69.171875 63.8515625 C69.77515625 63.90054688 70.3784375 63.94953125 71 64 C71 65.65 71 67.3 71 69 C54.17 69 37.34 69 20 69 C20 67.35 20 65.7 20 64 C20.67546875 63.93941406 21.3509375 63.87882812 22.046875 63.81640625 C22.93890625 63.73261719 23.8309375 63.64882812 24.75 63.5625 C25.63171875 63.48128906 26.5134375 63.40007812 27.421875 63.31640625 C29.69350452 63.03761535 31.79851823 62.61209423 34 62 C34 61.34 34 60.68 34 60 C34.66 60 35.32 60 36 60 C36 52.74 36 45.48 36 38 C35.34 38 34.68 38 34 38 C30 32.58823529 30 32.58823529 30 30 C29.34 30 28.68 30 28 30 C26.52401014 28.0280054 25.15911446 26.05768777 23.8125 24 C17.48536196 14.48382817 17.48536196 14.48382817 9 7 C6.72087062 6.54605448 6.72087062 6.54605448 4.3125 6.375 C3.10013672 6.26285156 3.10013672 6.26285156 1.86328125 6.1484375 C1.24839844 6.09945312 0.63351562 6.05046875 0 6 C0 4.02 0 2.04 0 0 Z " fill="#000000" transform="translate(1142,167)"/>
<path d="M0 0 C6.6752034 -0.02526945 13.35039457 -0.04283268 20.02563477 -0.05493164 C22.29842591 -0.05997325 24.5712138 -0.06680637 26.84399414 -0.07543945 C30.10303551 -0.08751261 33.36203417 -0.09322987 36.62109375 -0.09765625 C37.64400009 -0.10281754 38.66690643 -0.10797882 39.72080994 -0.11329651 C40.66170975 -0.11337204 41.60260956 -0.11344757 42.57202148 -0.11352539 C43.40475082 -0.115746 44.23748016 -0.11796661 45.09544373 -0.12025452 C47 0 47 0 48 1 C48.04063832 2.66617115 48.042721 4.33388095 48 6 C46.98679687 6.09087891 46.98679687 6.09087891 45.953125 6.18359375 C44.61507813 6.30927734 44.61507813 6.30927734 43.25 6.4375 C42.36828125 6.51871094 41.4865625 6.59992187 40.578125 6.68359375 C37.22347104 7.07331695 37.22347104 7.07331695 34 8 C33.00175095 10.99474714 32.84675968 13.07345334 32.79467773 16.20581055 C32.77473251 17.26668381 32.75478729 18.32755707 32.73423767 19.420578 C32.71752518 20.56440445 32.70081268 21.7082309 32.68359375 22.88671875 C32.66281265 24.05886429 32.64203156 25.23100983 32.62062073 26.43867493 C32.55516182 30.18822286 32.49625704 33.93784163 32.4375 37.6875 C32.39431132 40.22722091 32.35069692 42.76693462 32.30664062 45.30664062 C32.19948414 51.53768522 32.0977108 57.76880051 32 64 C35.16821343 63.9769173 38.33294054 63.89923829 41.5 63.8125 C42.8303125 63.80379883 42.8303125 63.80379883 44.1875 63.79492188 C51.64373237 63.5482083 56.4745197 61.27417315 61.91796875 56.21875 C66.25972974 50.34067358 68.63120124 43.87580526 71 37 C72.65 37 74.3 37 76 37 C76 47.89 76 58.78 76 70 C50.92 70 25.84 70 0 70 C0 68.02 0 66.04 0 64 C0.61488281 63.93941406 1.22976563 63.87882812 1.86328125 63.81640625 C2.67152344 63.73261719 3.47976563 63.64882812 4.3125 63.5625 C5.11300781 63.48128906 5.91351562 63.40007812 6.73828125 63.31640625 C9.16087179 63.04734307 9.16087179 63.04734307 12 62 C13.07191071 59.18773216 13.13064205 56.46464904 13.14526367 53.47851562 C13.15164352 52.59079468 13.15802338 51.70307373 13.16459656 50.78845215 C13.16570938 49.83732544 13.1668222 48.88619873 13.16796875 47.90625 C13.17129715 46.92257446 13.17462555 45.93889893 13.17805481 44.92541504 C13.1831128 42.84757962 13.18546348 40.7697361 13.18530273 38.69189453 C13.1874918 35.51190868 13.20566661 32.33226836 13.22460938 29.15234375 C13.22754299 27.13281369 13.229528 25.11328198 13.23046875 23.09375 C13.23765427 22.14262329 13.24483978 21.19149658 13.25224304 20.21154785 C13.24916641 19.3238269 13.24608978 18.43610596 13.24291992 17.52148438 C13.24434494 16.74301147 13.24576996 15.96453857 13.24723816 15.16247559 C12.96607093 12.70323845 12.28209706 11.10682138 11 9 C7.66658145 6.65426102 3.97527235 6.45868527 0 6 C0 4.02 0 2.04 0 0 Z " fill="#000000" transform="translate(1170,49)"/>
<path d="M0 0 C0 0.66 0 1.32 0 2 C3.98777649 2.88619331 3.98777649 2.88619331 8 3 C10.15449966 0.59855425 10.15449966 0.59855425 12 -2 C15.1171875 -2.16015625 15.1171875 -2.16015625 18 -2 C18.71125207 9.68485544 19.14534014 21.29204426 19 33 C17.35 33 15.7 33 14 33 C13.72027344 32.16597656 13.44054687 31.33195312 13.15234375 30.47265625 C9.07717021 19.03334275 3.52941651 10.11986941 -7.3125 4.1875 C-13.1928594 2.29382494 -17.77251695 1.88625848 -23.375 4.6875 C-28.68645108 9.36663548 -30.72088579 15.02474697 -31.20849609 21.96948242 C-31.30499357 25.46100623 -31.32193491 28.94469812 -31.3125 32.4375 C-31.32861328 33.62666016 -31.34472656 34.81582031 -31.36132812 36.04101562 C-31.36506904 42.77839458 -30.85020668 47.87894544 -28 54 C-27.71125 54.763125 -27.4225 55.52625 -27.125 56.3125 C-25.07123733 59.39314401 -22.15779325 60.6557912 -18.6875 61.6875 C-9.65481557 62.73781214 -2.13951345 61.7845486 5.1875 56.0625 C9.97444528 51.61131241 12.43442401 45.91831735 15 40 C16.65 40 18.3 40 20 40 C19.53211598 48.5778737 16.57057879 54.90824676 10.25 60.8125 C3.35019118 66.88733168 -4.33466797 68.70827344 -13.3125 68.5625 C-14.22878174 68.55661865 -15.14506348 68.5507373 -16.08911133 68.54467773 C-23.63956701 68.33714864 -29.39404731 66.78014178 -36 63 C-36.66 62.67 -37.32 62.34 -38 62 C-38 61.34 -38 60.68 -38 60 C-38.5775 59.7525 -39.155 59.505 -39.75 59.25 C-42.32939979 57.81700012 -44.06121592 56.21575324 -46 54 C-46 53.34 -46 52.68 -46 52 C-46.66 52 -47.32 52 -48 52 C-48.65239158 50.60721983 -49.29660552 49.21060788 -49.9375 47.8125 C-50.29714844 47.03519531 -50.65679688 46.25789063 -51.02734375 45.45703125 C-54.65812542 36.28529763 -53.80295147 25.95580556 -50 17 C-46.15662885 9.03873119 -40.56566331 5.2508676 -33 1 C-31.74896484 0.19175781 -31.74896484 0.19175781 -30.47265625 -0.6328125 C-21.50014925 -5.59391432 -9.05875115 -3.74844875 0 0 Z " fill="#000000" transform="translate(740,169)"/>
<path d="M0 0 C1.65 0 3.3 0 5 0 C10.93590056 10.45025859 10.93590056 10.45025859 12.4375 14.8125 C13.95106923 19.17618204 16.07094376 23.19229327 18.16943359 27.29956055 C20.46882577 31.84136986 22.5527979 36.44855629 24.5625 41.125 C26.69580209 46.04631543 28.83664806 50.96072569 31.125 55.8125 C31.56070313 56.74707031 31.99640625 57.68164062 32.4453125 58.64453125 C34.98757151 62.49624528 37.87663674 63.76684913 42.3125 64.6875 C43.199375 64.790625 44.08625 64.89375 45 65 C45 66.65 45 68.3 45 70 C31.14 70 17.28 70 3 70 C3 68.35 3 66.7 3 65 C3.62648438 64.93941406 4.25296875 64.87882812 4.8984375 64.81640625 C5.71570313 64.73261719 6.53296875 64.64882812 7.375 64.5625 C8.18710937 64.48128906 8.99921875 64.40007812 9.8359375 64.31640625 C12.04272805 64.10909886 12.04272805 64.10909886 14 63 C12.86545974 58.54911129 11.83025114 54.66072847 9 51 C6.40247535 50.31197745 6.40247535 50.31197745 3.45703125 50.51171875 C2.38388672 50.52783203 1.31074219 50.54394531 0.20507812 50.56054688 C-0.91447266 50.60244141 -2.03402344 50.64433594 -3.1875 50.6875 C-4.31865234 50.71005859 -5.44980469 50.73261719 -6.61523438 50.75585938 C-9.41147976 50.81485189 -12.20508097 50.8971176 -15 51 C-16.61422954 53.88029192 -17.00213247 55.12155088 -17.0625 58.5625 C-16.39752989 61.97641454 -16.39752989 61.97641454 -14.3671875 63.1171875 C-12.2195173 64.06889855 -12.2195173 64.06889855 -9 65 C-9 66.65 -9 68.3 -9 70 C-18.9 70 -28.8 70 -39 70 C-39 68.35 -39 66.7 -39 65 C-36.36 64.34 -33.72 63.68 -31 63 C-31 62.34 -31 61.68 -31 61 C-29.125 58.875 -29.125 58.875 -27 57 C-26.34 57 -25.68 57 -25 57 C-24.73058594 56.12859375 -24.46117187 55.2571875 -24.18359375 54.359375 C-23.04140355 51.11751502 -21.66988706 48.2839922 -20.0625 45.25 C-15.90890256 37.20481523 -12.47596276 28.85600118 -8.99633789 20.50292969 C-6.12206488 13.60800634 -3.1364635 6.77987294 0 0 Z M-4 22 C-5.20971115 24.65244044 -6.41706945 27.30590956 -7.62109375 29.9609375 C-8.48444129 31.86372614 -9.3511012 33.76501922 -10.22265625 35.6640625 C-10.76212891 36.85128906 -10.76212891 36.85128906 -11.3125 38.0625 C-11.80169922 39.13177734 -11.80169922 39.13177734 -12.30078125 40.22265625 C-13.12203176 41.9918697 -13.12203176 41.9918697 -13 44 C-6.4 44 0.2 44 7 44 C5.3899237 39.1697711 3.63748714 34.77102367 1.5 30.1875 C1.03787109 29.1675293 1.03787109 29.1675293 0.56640625 28.12695312 C-0.96663496 24.40121751 -0.96663496 24.40121751 -4 22 Z " fill="#000000" transform="translate(805,166)"/>
<path d="M0 0 C2.3125 -0.3125 2.3125 -0.3125 5 0 C6.5 1.875 6.5 1.875 8 5 C8.5878125 6.12728516 8.5878125 6.12728516 9.1875 7.27734375 C11.46645569 11.6792552 13.40626181 16.0288253 15.0703125 20.703125 C16.54344293 24.34262371 18.37946854 27.7961095 20.16479492 31.29052734 C22.50765643 35.91738758 24.63372036 40.61345939 26.6875 45.375 C27.27195107 46.7201322 27.85657948 48.06518736 28.44140625 49.41015625 C29.34863935 51.49974827 30.2535091 53.59037542 31.15234375 55.68359375 C33.07294078 59.88731014 34.65778326 62.24243608 39 64 C42.19395026 64.71401232 42.19395026 64.71401232 45 65 C45 66.65 45 68.3 45 70 C31.14 70 17.28 70 3 70 C3 68.35 3 66.7 3 65 C3.62648438 64.93941406 4.25296875 64.87882812 4.8984375 64.81640625 C5.71570313 64.73261719 6.53296875 64.64882812 7.375 64.5625 C8.18710937 64.48128906 8.99921875 64.40007812 9.8359375 64.31640625 C12.04272805 64.10909886 12.04272805 64.10909886 14 63 C13.79503906 62.38511719 13.59007812 61.77023438 13.37890625 61.13671875 C12.25260417 57.7578125 11.12630208 54.37890625 10 51 C1.75 51 -6.5 51 -15 51 C-17.22974284 56.13786333 -17.22974284 56.13786333 -16 61 C-13.68542384 63.16027108 -12.02557125 63.99147625 -9 65 C-9 66.65 -9 68.3 -9 70 C-18.9 70 -28.8 70 -39 70 C-39 68.35 -39 66.7 -39 65 C-38.38511719 64.75765625 -37.77023437 64.5153125 -37.13671875 64.265625 C-31.14016626 61.83222932 -31.14016626 61.83222932 -27 57 C-26.34 57 -25.68 57 -25 57 C-24.5978125 55.9171875 -24.5978125 55.9171875 -24.1875 54.8125 C-23 52 -23 52 -21.57421875 49.70703125 C-19.89966306 46.8274603 -18.76952705 44.00132556 -17.625 40.875 C-15.7333647 35.84189892 -13.65817382 30.97001589 -11.390625 26.09765625 C-9.30533651 21.45261757 -7.40161621 16.73488084 -5.49853516 12.01269531 C-3.83339438 7.90962011 -2.03924911 3.93636874 0 0 Z M-4 22 C-5.13169701 24.35114592 -6.25541381 26.70559335 -7.375 29.0625 C-7.85066406 30.04766602 -7.85066406 30.04766602 -8.3359375 31.05273438 C-8.8 32.0340332 -8.8 32.0340332 -9.2734375 33.03515625 C-9.55622559 33.6269165 -9.83901367 34.21867676 -10.13037109 34.82836914 C-11.32122152 37.80215199 -12.11996959 40.91989356 -13 44 C-6.4 44 0.2 44 7 44 C5.42881907 38.30992205 5.42881907 38.30992205 3.2734375 33.03515625 C2.809375 32.05385742 2.809375 32.05385742 2.3359375 31.05273438 C2.01882813 30.39595703 1.70171875 29.73917969 1.375 29.0625 C0.88773438 28.03672852 0.88773438 28.03672852 0.390625 26.99023438 C-0.40145594 25.32453475 -1.2000474 23.6619336 -2 22 C-2.66 22 -3.32 22 -4 22 Z " fill="#000000" transform="translate(635,166)"/>
<path d="M0 0 C0.85758911 -0.00315216 1.71517822 -0.00630432 2.59875488 -0.009552 C3.53102905 -0.00752777 4.46330322 -0.00550354 5.42382812 -0.00341797 C6.84979309 -0.00485306 6.84979309 -0.00485306 8.30456543 -0.00631714 C10.31876695 -0.00699904 12.33297065 -0.00514409 14.34716797 -0.00097656 C17.44178167 0.00437155 20.53625022 -0.00092124 23.63085938 -0.00732422 C25.58268261 -0.00666344 27.53450576 -0.00538228 29.48632812 -0.00341797 C30.88473938 -0.00645432 30.88473938 -0.00645432 32.31140137 -0.009552 C33.16899048 -0.00639984 34.02657959 -0.00324768 34.91015625 0 C35.66880981 0.00079559 36.42746338 0.00159119 37.20910645 0.00241089 C38.95507812 0.12939453 38.95507812 0.12939453 39.95507812 1.12939453 C39.99571645 2.79556568 39.99779913 4.46327548 39.95507812 6.12939453 C39.32859375 6.26216797 38.70210937 6.39494141 38.05664062 6.53173828 C37.239375 6.70833984 36.42210937 6.88494141 35.58007812 7.06689453 C34.76796875 7.24091797 33.95585938 7.41494141 33.11914062 7.59423828 C30.92561513 8.05270146 30.92561513 8.05270146 28.95507812 9.12939453 C26.72444048 14.15928303 26.64831718 18.82598091 26.65429688 24.21923828 C26.65001175 25.08198868 26.64572662 25.94473907 26.64131165 26.83363342 C26.63558933 28.65153123 26.63505255 30.46945192 26.6394043 32.28735352 C26.64256427 35.05476265 26.61907921 37.82110168 26.59375 40.58837891 C26.59147665 42.36116403 26.59077368 44.133952 26.59179688 45.90673828 C26.58258713 46.72673813 26.57337738 47.54673798 26.56388855 48.3915863 C26.60616971 53.69259065 27.40245924 57.44793885 29.95507812 62.12939453 C32.3988676 63.38490257 32.3988676 63.38490257 35.14257812 63.56689453 C36.49416016 63.75058594 36.49416016 63.75058594 37.87304688 63.93798828 C38.56011719 64.00115234 39.2471875 64.06431641 39.95507812 64.12939453 C39.95507812 66.10939453 39.95507812 68.08939453 39.95507812 70.12939453 C25.10507813 70.12939453 10.25507812 70.12939453 -5.04492188 70.12939453 C-5.04492188 68.14939453 -5.04492188 66.16939453 -5.04492188 64.12939453 C-4.43003906 64.09201172 -3.81515625 64.05462891 -3.18164062 64.01611328 C-2.37339844 63.95037109 -1.56515625 63.88462891 -0.73242188 63.81689453 C0.06808594 63.75888672 0.86859375 63.70087891 1.69335938 63.64111328 C4.43273416 63.02132382 5.19156656 62.28349459 6.95507812 60.12939453 C9.28155414 53.38686407 9.27537112 46.12022625 9.20507812 39.06689453 C9.19758545 38.07334961 9.19009277 37.07980469 9.18237305 36.05615234 C9.09262611 29.81297433 8.86074516 23.59603105 8.26757812 17.37939453 C8.2144043 16.68322021 8.16123047 15.9870459 8.10644531 15.26977539 C7.70930114 11.85923536 7.31417959 10.42206222 4.61132812 8.21923828 C1.40402091 6.903299 -1.60547646 6.46659506 -5.04492188 6.12939453 C-5.08764288 4.46327548 -5.0855602 2.79556568 -5.04492188 1.12939453 C-3.51407763 -0.40144971 -2.13289044 0.00223674 0 0 Z " fill="#000000" transform="translate(1258.044921875,48.87060546875)"/>
<path d="M0 0 C0 0.33 0 0.66 0 1 C-9.57 1 -19.14 1 -29 1 C-29 0.67 -29 0.34 -29 0 C-19.27793445 -1.43440311 -9.75923339 -0.65128354 0 0 Z " fill="#393939" transform="translate(629,4)"/>
<path d="M0 0 C4 1 4 1 4 1 Z " fill="#000000" transform="translate(1883,0)"/>
</svg>
